<svg fill="none" height="32" viewBox="0 0 32 32" width="32" xmlns="http://www.w3.org/2000/svg"><g fill="#51a06c"><path d="m16 2.6665c-7.35198 0-13.33331 5.98134-13.33331 13.3333 0 7.352 5.98133 13.3334 13.33331 13.3334 7.352 0 13.3334-5.9814 13.3334-13.3334 0-7.35196-5.9814-13.3333-13.3334-13.3333zm0 24c-5.8813 0-10.66665-4.7853-10.66665-10.6667 0-5.8813 4.78535-10.66663 10.66665-10.66663 5.8814 0 10.6667 4.78533 10.6667 10.66663 0 5.8814-4.7853 10.6667-10.6667 10.6667z"/><path d="m13.332 18.1158-3.0654-3.06-1.88263 1.888 4.95063 4.94 8.9414-8.9413-1.8854-1.8854z"/></g></svg>