<svg width="58" height="60" viewBox="0 0 58 60" fill="none" xmlns="http://www.w3.org/2000/svg">
<path opacity="0.8" fill-rule="evenodd" clip-rule="evenodd" d="M6.20003 26.9651C6.20003 15.6549 15.132 6.48613 26.1501 6.48613C37.1683 6.48613 46.1002 15.6549 46.1002 26.9651C46.1002 32.4823 43.9748 37.4899 40.5186 41.1722C40.4208 41.2494 40.3268 41.3339 40.2372 41.4259C40.1476 41.5178 40.0653 41.6143 39.9901 41.7147C36.4029 45.2624 31.5247 47.444 26.1501 47.444C15.132 47.444 6.20003 38.2753 6.20003 26.9651ZM42.1604 47.5375C37.7724 51.1406 32.2064 53.2951 26.1501 53.2951C11.984 53.2951 0.5 41.5068 0.5 26.9651C0.5 12.4234 11.984 0.63501 26.1501 0.63501C40.3163 0.63501 51.8002 12.4234 51.8002 26.9651C51.8002 33.182 49.7012 38.8957 46.191 43.4001L56.6653 54.1521C57.7783 55.2946 57.7783 57.1469 56.6653 58.2895C55.5523 59.432 53.7477 59.432 52.6347 58.2895L42.1604 47.5375ZM26.1501 15.2628C27.7242 15.2628 29.0002 16.5726 29.0002 18.1884V24.0395H34.7002C36.2742 24.0395 37.5502 25.3493 37.5502 26.9651C37.5502 28.5808 36.2742 29.8906 34.7002 29.8906H29.0002V35.7417C29.0002 37.3575 27.7242 38.6673 26.1501 38.6673C24.5761 38.6673 23.3001 37.3575 23.3001 35.7417V29.8906H17.6001C16.0261 29.8906 14.7501 28.5808 14.7501 26.9651C14.7501 25.3493 16.0261 24.0395 17.6001 24.0395H23.3001V18.1884C23.3001 16.5726 24.5761 15.2628 26.1501 15.2628Z" fill="white"/>
</svg>
