<svg width="48" height="48" viewBox="0 0 48 48" version="1.1" xmlns="http://www.w3.org/2000/svg" xmlns:xlink="http://www.w3.org/1999/xlink">
    <g id="Canvas" transform="translate(-4048 700)">
        <g id="Vector">
            <use xlink:href="#path0_fill" transform="translate(4048 -700)" fill="#404040"/>
        </g>
    </g>
    <defs>
        <path id="path0_fill" d="M 38.1972 36.9577C 41.5775 33.3521 43.2676 29.0329 43.2676 24C 43.2676 20.0188 42.1596 16.4131 39.9437 13.1831C 37.7277 9.95305 34.8169 7.62441 31.2113 6.19718L 31.2113 7.21127C 31.2113 8.48826 30.723 9.59624 29.7465 10.5352C 28.77 11.4742 27.6432 11.9437 26.3662 11.9437L 21.6338 11.9437L 21.6338 16.7887C 21.6338 17.4648 21.3897 18.0282 20.9014 18.4789C 20.4131 18.9296 19.831 19.1549 19.1549 19.1549L 14.4225 19.1549L 14.4225 24L 28.8451 24C 29.5211 24 30.0845 24.2254 30.5352 24.6761C 30.9859 25.1268 31.2113 25.6901 31.2113 26.3662L 31.2113 33.5775L 33.5775 33.5775C 35.831 33.5775 37.3709 34.7042 38.1972 36.9577ZM 21.6338 43.0423L 21.6338 38.4225C 20.3568 38.4225 19.23 37.9343 18.2535 36.9577C 17.277 35.9812 16.7887 34.8545 16.7887 33.5775L 16.7887 31.2113L 5.29578 19.7183C 4.92019 21.2207 4.7324 22.6479 4.7324 24C 4.7324 28.8826 6.3662 33.1268 9.6338 36.7324C 12.9014 40.338 16.9014 42.4413 21.6338 43.0423ZM 24 -4.80751e-07C 30.6103 -4.80751e-07 36.2629 2.34742 40.9577 7.04225C 45.6526 11.7371 48 17.3897 48 24C 48 30.6103 45.6526 36.2629 40.9577 40.9577C 36.2629 45.6526 30.6103 48 24 48C 17.3897 48 11.7371 45.6526 7.04225 40.9577C 2.34742 36.2629 2.22711e-08 30.6103 2.22711e-08 24C 2.22711e-08 17.3897 2.34742 11.7371 7.04225 7.04225C 11.7371 2.34742 17.3897 -4.80751e-07 24 -4.80751e-07Z"/>
    </defs>
</svg>
