<svg width="53" height="48" viewBox="0 0 53 48" version="1.1" xmlns="http://www.w3.org/2000/svg" xmlns:xlink="http://www.w3.org/1999/xlink">
    <g id="Canvas" transform="translate(-3862 700)">
        <g id="Vector">
            <use xlink:href="#path0_fill" transform="translate(3862 -700)" fill="#404040"/>
        </g>
    </g>
    <defs>
        <path id="path0_fill" d="M 52.6452 21.5831L 52.5331 21.808L 52.6452 21.808L 52.6452 26.4169C 52.6452 27.0164 52.5331 27.6159 52.3091 28.2155L 45.0284 45.0773C 44.2817 47.0258 42.8255 48 40.66 48L 19.1539 48C 17.8844 48 16.7643 47.5129 15.7936 46.5386C 14.8228 45.5644 14.3374 44.4403 14.3374 43.1663L 14.3374 19.2225C 14.3374 17.9485 14.8228 16.8244 15.7936 15.8501L 31.4751 -9.59251e-07L 34.0513 2.58548C 34.7234 3.25995 35.0594 4.08431 35.0594 5.05855L 35.0594 5.84543L 32.7072 16.8618L 47.8287 16.8618C 49.0981 16.8618 50.2183 17.3302 51.189 18.267C 52.1598 19.2037 52.6452 20.3091 52.6452 21.5831ZM -2.21397e-08 48L -2.21397e-08 19.2225L 9.63294 19.2225L 9.63294 48L -2.21397e-08 48Z"/>
    </defs>
</svg>
