<svg xmlns="http://www.w3.org/2000/svg" width="58.97" height="50.92" viewBox="0 0 58.97 50.92">
  <defs>
    <style>
      .a {
        fill: #404040;
      }
    </style>
  </defs>
  <title>support</title>
  <path class="a" d="M18,37.45a31.72,31.72,0,0,1,11.84,2.47Q36,42.4,36,46.4v4.53H0V46.4q0-4,6.16-6.47A31.72,31.72,0,0,1,18,37.45Zm0-4.53a8.61,8.61,0,0,1-6.32-2.63A8.61,8.61,0,0,1,9.05,24a8.79,8.79,0,0,1,2.63-6.37A8.53,8.53,0,0,1,18,14.92a8.53,8.53,0,0,1,6.32,2.68A8.79,8.79,0,0,1,26.95,24a8.61,8.61,0,0,1-2.63,6.32A8.61,8.61,0,0,1,18,32.92Z"/>
  <path class="a" d="M56.51,0a2.36,2.36,0,0,1,1.73.73A2.36,2.36,0,0,1,59,2.46v15a2.46,2.46,0,0,1-.73,1.76,2.32,2.32,0,0,1-1.73.76H39l-5,5V2.46A2.36,2.36,0,0,1,34.75.73,2.36,2.36,0,0,1,36.47,0Z"/>
</svg>
