<svg width="32" height="32" viewBox="0 0 32 32" fill="none" xmlns="http://www.w3.org/2000/svg">
<path d="M21.3334 16V8.00001C21.3334 5.04401 18.9534 2.63867 16.028 2.63867C15.9342 2.63924 15.8407 2.65042 15.7494 2.67201C14.3804 2.73838 13.0893 3.32848 12.1432 4.32021C11.1971 5.31194 10.6685 6.6294 10.6667 8.00001V16C10.6667 18.9413 13.0587 21.3333 16 21.3333C18.9414 21.3333 21.3334 18.9413 21.3334 16ZM13.3334 16V8.00001C13.3334 6.52934 14.5294 5.33334 16 5.33334C16.0729 5.33336 16.1457 5.32667 16.2174 5.31334C17.584 5.41334 18.6667 6.58001 18.6667 8.00001V16C18.6667 17.4707 17.4707 18.6667 16 18.6667C14.5294 18.6667 13.3334 17.4707 13.3334 16Z" fill="#E2BF72"/>
<path d="M7.99998 16H5.33331C5.33331 21.4293 9.41465 25.9147 14.6666 26.5747V29.3333H17.3333V26.5747C22.5853 25.9147 26.6666 21.4307 26.6666 16H24C24 20.412 20.412 24 16 24C11.588 24 7.99998 20.412 7.99998 16Z" fill="#E2BF72"/>
</svg>
