<svg width="32" height="32" viewBox="0 0 32 32" fill="none" xmlns="http://www.w3.org/2000/svg">
<path d="M23.3334 5.33341C20.76 5.33341 18.6667 7.42675 18.6667 10.0001C18.6667 12.0721 20.0334 13.8121 21.9067 14.4201C21.712 15.6627 21.1774 16.6867 20.2667 17.5174C17.672 19.8814 12.8974 20.0974 10.6667 20.0601V11.7827C12.5867 11.2041 14 9.44008 14 7.33342C14 4.76008 11.9067 2.66675 9.33335 2.66675C6.76002 2.66675 4.66669 4.76008 4.66669 7.33342C4.66669 9.44008 6.08002 11.2041 8.00002 11.7827V20.2174C6.08002 20.7961 4.66669 22.5601 4.66669 24.6667C4.66669 27.2401 6.76002 29.3334 9.33335 29.3334C11.9067 29.3334 14 27.2401 14 24.6667C14 23.9321 13.8134 23.2467 13.5107 22.6281C16.2574 22.3801 19.72 21.6187 22.056 19.4947C23.5187 18.1654 24.364 16.4761 24.5947 14.4707C26.5534 13.9174 28 12.1334 28 10.0001C28 7.42675 25.9067 5.33341 23.3334 5.33341ZM7.33335 7.33342C7.33335 6.23075 8.23069 5.33341 9.33335 5.33341C10.436 5.33341 11.3334 6.23075 11.3334 7.33342C11.3334 8.43608 10.436 9.33342 9.33335 9.33342C8.23069 9.33342 7.33335 8.43608 7.33335 7.33342ZM9.33335 26.6667C8.23069 26.6667 7.33335 25.7694 7.33335 24.6667C7.33402 24.1409 7.54174 23.6365 7.91157 23.2627C8.28139 22.8889 8.78355 22.6757 9.30935 22.6694L9.48269 22.6827C9.74428 22.6926 10.0014 22.7538 10.2393 22.863C10.4772 22.9721 10.6913 23.1271 10.8694 23.319C11.0474 23.5109 11.1859 23.736 11.277 23.9814C11.368 24.2269 11.4098 24.4878 11.4 24.7494C11.3902 25.011 11.329 25.2681 11.2198 25.506C11.1106 25.744 10.9557 25.9581 10.7638 26.1361C10.5719 26.3141 10.3468 26.4526 10.1013 26.5437C9.85591 26.6347 9.59495 26.6766 9.33335 26.6667ZM23.3334 12.0001C22.2307 12.0001 21.3334 11.1027 21.3334 10.0001C21.3334 8.89741 22.2307 8.00008 23.3334 8.00008C24.436 8.00008 25.3334 8.89741 25.3334 10.0001C25.3334 11.1027 24.436 12.0001 23.3334 12.0001Z" fill="#E2BF72"/>
</svg>
