<svg width="32" height="32" viewBox="0 0 32 32" fill="none" xmlns="http://www.w3.org/2000/svg">
<path fill-rule="evenodd" clip-rule="evenodd" d="M25.6108 11.4271C25.3051 11.3204 24.9969 11.2215 24.6864 11.1306C24.7378 10.9177 24.7855 10.7038 24.8292 10.489C25.5289 7.03233 25.0714 4.2476 23.509 3.33088C22.011 2.45171 19.561 3.36843 17.0866 5.55963C16.8427 5.77603 16.6043 5.99867 16.3716 6.22739C16.2157 6.07531 16.0571 5.92621 15.8957 5.78015C13.3025 3.43693 10.7032 2.44965 9.14239 3.36906C7.64579 4.2507 7.2025 6.86873 7.83248 10.1446C7.89515 10.4691 7.96594 10.7918 8.04472 11.1125C7.67692 11.2189 7.32172 11.3321 6.98188 11.4527C3.94166 12.5313 2 14.2219 2 15.9753C2 17.7864 4.08425 19.603 7.25105 20.7044C7.50782 20.7933 7.76674 20.8756 8.02757 20.9514C7.94283 21.2969 7.86761 21.6448 7.80197 21.9947C7.20136 25.2137 7.67045 27.7696 9.1631 28.6458C10.7048 29.5505 13.2923 28.6206 15.812 26.3794C16.0111 26.2022 16.2111 26.0143 16.4112 25.8173C16.6633 26.0648 16.9222 26.3052 17.1875 26.538C19.6281 28.6752 22.0385 29.5382 23.5298 28.6597C25.0702 27.7523 25.5706 25.0065 24.9207 21.6658C24.8711 21.4107 24.8133 21.1501 24.7485 20.8847C24.9302 20.8301 25.1085 20.7737 25.2825 20.715C28.5746 19.6051 30.7164 17.8106 30.7164 15.9753C30.7164 14.2155 28.7123 12.5136 25.6108 11.4271ZM24.8967 19.5301C24.7397 19.583 24.5786 19.634 24.4144 19.6836C24.0509 18.5128 23.5603 17.2677 22.9602 15.9815C23.533 14.7257 24.0045 13.4967 24.3578 12.3334C24.6515 12.4201 24.9367 12.5112 25.2115 12.6076C27.8689 13.5384 29.4898 14.9148 29.4898 15.9753C29.4898 17.105 27.7391 18.5716 24.8967 19.5301ZM23.7173 21.9083C24.0046 23.3855 24.0457 24.7211 23.8553 25.7652C23.6843 26.7034 23.3404 27.3288 22.9151 27.5793C22.0101 28.1124 20.0747 27.4195 17.9876 25.5917C17.7483 25.3822 17.5072 25.1585 17.2655 24.9218C18.0747 24.0212 18.8834 22.9741 19.6726 21.8115C21.0609 21.6861 22.3724 21.4811 23.5619 21.2014C23.6203 21.442 23.6724 21.6777 23.7173 21.9083ZM11.79 27.4872C10.9059 27.805 10.2017 27.814 9.77605 27.5643C8.87016 27.0327 8.49373 24.9803 9.00728 22.2275C9.06836 21.9022 9.13829 21.5786 9.21699 21.2573C10.3932 21.522 11.6952 21.7125 13.0868 21.8274C13.8813 22.9651 14.7133 24.0108 15.5519 24.9266C15.3736 25.102 15.1912 25.273 15.0047 25.4393C13.8905 26.4304 12.7741 27.1335 11.79 27.4872ZM7.64782 19.5231C6.24755 19.036 5.09117 18.4031 4.29853 17.7125C3.58632 17.0917 3.22666 16.4754 3.22666 15.9753C3.22666 14.9114 4.78566 13.554 7.38576 12.6315C7.71212 12.5163 8.04171 12.4107 8.37413 12.3151C8.73355 13.5045 9.20491 14.7481 9.77377 16.0057C9.19754 17.2821 8.71944 18.5455 8.35672 19.7489C8.11863 19.6795 7.88227 19.6043 7.64782 19.5231ZM9.03639 9.90488C8.49665 7.09803 8.85503 4.98077 9.75699 4.4495C10.7178 3.88354 12.8421 4.69054 15.0811 6.71367C15.2242 6.84299 15.368 6.97839 15.5119 7.11843C14.6777 8.03011 13.8533 9.06795 13.0657 10.1991C11.7152 10.3265 10.4223 10.5311 9.23376 10.8051C9.16054 10.5067 9.09474 10.2065 9.03639 9.90488ZM21.4233 13.0174C21.1426 12.5239 20.8515 12.0367 20.5501 11.556C21.4664 11.6737 22.3442 11.8302 23.1685 12.0217C22.9211 12.8288 22.6126 13.6729 22.2494 14.5381C21.984 14.0257 21.7086 13.5187 21.4233 13.0174ZM16.3719 8.01056C16.9377 8.63436 17.5044 9.3309 18.0619 10.0866C16.9311 10.0322 15.7985 10.032 14.6678 10.0858C15.2257 9.33709 15.7973 8.64158 16.3719 8.01056ZM11.2882 13.026C11.0064 13.5232 10.7362 14.0271 10.4776 14.5372C10.1203 13.6749 9.81469 12.8272 9.56509 12.0085C10.3844 11.8219 11.2582 11.6694 12.1685 11.5537C11.8638 12.0374 11.5702 12.5282 11.2882 13.026ZM12.1947 20.4861C11.2542 20.3792 10.3673 20.2346 9.54818 20.0531C9.80172 19.2199 10.1141 18.3539 10.479 17.4732C10.7387 17.9837 11.0101 18.4878 11.2931 18.9854C11.5819 19.4928 11.8825 19.9932 12.1947 20.4861ZM16.4059 24.0283C15.8245 23.3898 15.2445 22.6837 14.6781 21.9241C15.2279 21.9461 15.7885 21.9572 16.3582 21.9572C16.9436 21.9572 17.5222 21.9439 18.0917 21.918C17.5325 22.6914 16.9679 23.3986 16.4059 24.0283ZM22.2611 17.4283C22.6449 18.3186 22.9685 19.18 23.2255 19.999C22.3928 20.1924 21.4939 20.3481 20.5467 20.4637C20.8502 19.974 21.1442 19.4782 21.4283 18.9767C21.7172 18.4669 21.9948 17.9507 22.2611 17.4283ZM20.3656 18.3531C19.9306 19.122 19.4711 19.8765 18.9879 20.615C18.1359 20.677 17.2555 20.7089 16.3582 20.7089C15.4647 20.7089 14.5954 20.6806 13.7582 20.6254C13.2625 19.8885 12.7944 19.1328 12.3548 18.3599C11.9173 17.5911 11.5086 16.8057 11.1297 16.0053C11.5076 15.2047 11.9151 14.4189 12.3511 13.6497C12.787 12.8802 13.2515 12.1277 13.7435 11.394C14.5975 11.3283 15.4732 11.2938 16.3584 11.2938C17.2475 11.2938 18.1242 11.3285 18.978 11.3947C19.4651 12.1273 19.9266 12.8772 20.3616 13.6428C20.7992 14.4106 21.2121 15.1926 21.5996 15.9876C21.216 16.7908 20.8045 17.5797 20.3656 18.3531ZM22.8963 4.41235C23.8579 4.97676 24.2319 7.25257 23.6277 10.2371C23.5881 10.4315 23.545 10.6252 23.4986 10.818C22.3072 10.5383 21.0135 10.3301 19.659 10.2008C18.8699 9.05735 18.0523 8.01767 17.2316 7.1178C17.4466 6.90679 17.6668 6.70129 17.8919 6.50146C20.012 4.62382 21.9935 3.88251 22.8963 4.41235ZM18.9225 15.9754C18.9225 14.5343 17.7745 13.3659 16.3582 13.3659C14.9421 13.3659 13.7939 14.5343 13.7939 15.9754C13.7939 17.4166 14.9421 18.585 16.3582 18.585C17.7745 18.585 18.9225 17.4166 18.9225 15.9754Z" fill="#E2BF72"/>
<path d="M24.6864 11.1306L24.5406 11.0954L24.5069 11.2344L24.6442 11.2746L24.6864 11.1306ZM25.6108 11.4271L25.6604 11.2855L25.6602 11.2854L25.6108 11.4271ZM24.8292 10.489L24.9762 10.5189L24.9762 10.5188L24.8292 10.489ZM23.509 3.33088L23.4331 3.46025L23.4331 3.46026L23.509 3.33088ZM17.0866 5.55963L16.9871 5.44733L16.987 5.44744L17.0866 5.55963ZM16.3716 6.22739L16.2668 6.33476L16.372 6.43732L16.4767 6.33438L16.3716 6.22739ZM15.8957 5.78015L15.9964 5.66896L15.9963 5.66886L15.8957 5.78015ZM9.14239 3.36906L9.06625 3.23982L9.06625 3.23982L9.14239 3.36906ZM7.83248 10.1446L7.68518 10.1729L7.6852 10.1731L7.83248 10.1446ZM8.04472 11.1125L8.08638 11.2566L8.22475 11.2166L8.19039 11.0767L8.04472 11.1125ZM6.98188 11.4527L6.93173 11.3113L6.93173 11.3113L6.98188 11.4527ZM7.25105 20.7044L7.20177 20.8461L7.20197 20.8461L7.25105 20.7044ZM8.02757 20.9514L8.17325 20.9871L8.2075 20.8475L8.06942 20.8073L8.02757 20.9514ZM7.80197 21.9947L7.65454 21.967L7.65452 21.9672L7.80197 21.9947ZM9.1631 28.6458L9.08716 28.7752L9.08718 28.7752L9.1631 28.6458ZM15.812 26.3794L15.9117 26.4914L15.9117 26.4914L15.812 26.3794ZM16.4112 25.8173L16.5163 25.7103L16.4111 25.607L16.306 25.7104L16.4112 25.8173ZM17.1875 26.538L17.0885 26.6508L17.0887 26.6509L17.1875 26.538ZM23.5298 28.6597L23.606 28.7889L23.606 28.7889L23.5298 28.6597ZM24.9207 21.6658L24.7735 21.6944L24.7735 21.6945L24.9207 21.6658ZM24.7485 20.8847L24.7054 20.741L24.569 20.7819L24.6028 20.9202L24.7485 20.8847ZM25.2825 20.715L25.2346 20.5728L25.2346 20.5729L25.2825 20.715ZM24.4144 19.6836L24.2711 19.7281L24.3153 19.8702L24.4577 19.8272L24.4144 19.6836ZM24.8967 19.5301L24.9445 19.6723L24.9446 19.6722L24.8967 19.5301ZM22.9602 15.9815L22.8238 15.9193L22.795 15.9823L22.8243 16.045L22.9602 15.9815ZM24.3578 12.3334L24.4003 12.1895L24.2575 12.1474L24.2143 12.2898L24.3578 12.3334ZM25.2115 12.6076L25.1618 12.7491L25.1619 12.7491L25.2115 12.6076ZM23.8553 25.7652L24.0029 25.7921V25.7921L23.8553 25.7652ZM23.7173 21.9083L23.8645 21.8797V21.8796L23.7173 21.9083ZM22.9151 27.5793L22.9913 27.7085L22.9913 27.7085L22.9151 27.5793ZM17.9876 25.5917L18.0865 25.4789L18.0864 25.4789L17.9876 25.5917ZM17.2655 24.9218L17.1539 24.8215L17.0579 24.9284L17.1606 25.029L17.2655 24.9218ZM19.6726 21.8115L19.6591 21.6621L19.5884 21.6685L19.5485 21.7272L19.6726 21.8115ZM23.5619 21.2014L23.7076 21.166L23.6725 21.0213L23.5275 21.0554L23.5619 21.2014ZM9.77605 27.5643L9.70014 27.6937L9.70015 27.6937L9.77605 27.5643ZM11.79 27.4872L11.8407 27.6284L11.8408 27.6284L11.79 27.4872ZM9.00728 22.2275L8.85986 22.1999L8.85983 22.2L9.00728 22.2275ZM9.21699 21.2573L9.24993 21.1109L9.10631 21.0786L9.0713 21.2216L9.21699 21.2573ZM13.0868 21.8274L13.2098 21.7415L13.1694 21.6837L13.0992 21.6779L13.0868 21.8274ZM15.5519 24.9266L15.6571 25.0335L15.7602 24.932L15.6625 24.8253L15.5519 24.9266ZM15.0047 25.4393L15.1044 25.5513L15.1046 25.5512L15.0047 25.4393ZM4.29853 17.7125L4.19997 17.8256L4.19999 17.8256L4.29853 17.7125ZM7.64782 19.5231L7.59854 19.6648L7.59875 19.6649L7.64782 19.5231ZM7.38576 12.6315L7.3358 12.4901L7.3356 12.4902L7.38576 12.6315ZM8.37413 12.3151L8.51772 12.2717L8.4749 12.13L8.33266 12.1709L8.37413 12.3151ZM9.77377 16.0057L9.91048 16.0674L9.93837 16.0057L9.91043 15.9439L9.77377 16.0057ZM8.35672 19.7489L8.31476 19.8929L8.45745 19.9345L8.50034 19.7922L8.35672 19.7489ZM9.75699 4.4495L9.83312 4.57874L9.83312 4.57874L9.75699 4.4495ZM9.03639 9.90488L8.88909 9.93321L8.88912 9.93337L9.03639 9.90488ZM15.0811 6.71367L15.1817 6.60238L15.1817 6.60237L15.0811 6.71367ZM15.5119 7.11843L15.6226 7.21969L15.7208 7.11235L15.6165 7.0109L15.5119 7.11843ZM13.0657 10.1991L13.0798 10.3484L13.1491 10.3419L13.1888 10.2848L13.0657 10.1991ZM9.23376 10.8051L9.08809 10.8409L9.12333 10.9845L9.26747 10.9513L9.23376 10.8051ZM20.5501 11.556L20.5692 11.4073L20.2545 11.3668L20.423 11.6357L20.5501 11.556ZM21.4233 13.0174L21.293 13.0916L21.293 13.0916L21.4233 13.0174ZM23.1685 12.0217L23.3119 12.0657L23.3591 11.912L23.2025 11.8756L23.1685 12.0217ZM22.2494 14.5381L22.1162 14.6071L22.2637 14.8917L22.3877 14.5961L22.2494 14.5381ZM18.0619 10.0866L18.0546 10.2364L18.3699 10.2516L18.1826 9.99756L18.0619 10.0866ZM16.3719 8.01056L16.483 7.90979L16.3722 7.78754L16.261 7.90956L16.3719 8.01056ZM14.6678 10.0858L14.5475 9.99616L14.3578 10.2507L14.6749 10.2356L14.6678 10.0858ZM10.4776 14.5372L10.339 14.5946L10.4639 14.896L10.6114 14.605L10.4776 14.5372ZM11.2882 13.026L11.1577 12.952L11.1576 12.952L11.2882 13.026ZM9.56509 12.0085L9.53177 11.8623L9.37459 11.8981L9.42161 12.0523L9.56509 12.0085ZM12.1685 11.5537L12.2954 11.6336L12.4648 11.3648L12.1496 11.4049L12.1685 11.5537ZM9.54818 20.0531L9.40468 20.0094L9.3575 20.1645L9.51574 20.1995L9.54818 20.0531ZM12.1947 20.4861L12.1777 20.6351L12.4891 20.6705L12.3214 20.4058L12.1947 20.4861ZM10.479 17.4732L10.6127 17.4052L10.465 17.115L10.3404 17.4158L10.479 17.4732ZM11.2931 18.9854L11.1627 19.0595L11.1627 19.0595L11.2931 18.9854ZM14.6781 21.9241L14.6841 21.7742L14.3699 21.7617L14.5579 22.0138L14.6781 21.9241ZM16.4059 24.0283L16.295 24.1293L16.407 24.2523L16.5178 24.1282L16.4059 24.0283ZM18.0917 21.918L18.2133 22.0059L18.3954 21.7541L18.0849 21.7682L18.0917 21.918ZM23.2255 19.999L23.2594 20.1451L23.417 20.1085L23.3686 19.9541L23.2255 19.999ZM22.2611 17.4283L22.3989 17.3689L22.2725 17.0758L22.1275 17.3602L22.2611 17.4283ZM20.5467 20.4637L20.4192 20.3847L20.2544 20.6505L20.5649 20.6126L20.5467 20.4637ZM21.4283 18.9767L21.2978 18.9028L21.2978 18.9028L21.4283 18.9767ZM18.9879 20.615L18.9988 20.7646L19.0728 20.7592L19.1135 20.6971L18.9879 20.615ZM20.3656 18.3531L20.2351 18.279L20.235 18.2792L20.3656 18.3531ZM13.7582 20.6254L13.6338 20.7091L13.6749 20.7702L13.7484 20.7751L13.7582 20.6254ZM12.3548 18.3599L12.4852 18.2857L12.4852 18.2857L12.3548 18.3599ZM11.1297 16.0053L10.994 15.9413L10.9638 16.0054L10.9941 16.0695L11.1297 16.0053ZM12.3511 13.6497L12.4816 13.7237L12.4816 13.7236L12.3511 13.6497ZM13.7435 11.394L13.732 11.2444L13.6594 11.25L13.6189 11.3104L13.7435 11.394ZM18.978 11.3947L19.1029 11.3117L19.0625 11.2508L18.9896 11.2452L18.978 11.3947ZM20.3616 13.6428L20.2312 13.717L20.2313 13.7171L20.3616 13.6428ZM21.5996 15.9876L21.735 16.0523L21.7662 15.9869L21.7344 15.9219L21.5996 15.9876ZM23.6277 10.2371L23.7747 10.2671L23.7747 10.2669L23.6277 10.2371ZM22.8963 4.41235L22.9722 4.28299L22.9722 4.28298L22.8963 4.41235ZM23.4986 10.818L23.4643 10.9641L23.6095 10.9982L23.6444 10.8532L23.4986 10.818ZM19.659 10.2008L19.5355 10.286L19.5752 10.3435L19.6447 10.3501L19.659 10.2008ZM17.2316 7.1178L17.1265 7.01073L17.0233 7.11202L17.1208 7.21888L17.2316 7.1178ZM17.8919 6.50146L17.7925 6.38916L17.7923 6.38928L17.8919 6.50146ZM24.6442 11.2746C24.9523 11.3648 25.2581 11.4628 25.5614 11.5687L25.6602 11.2854C25.3522 11.1779 25.0415 11.0783 24.7285 10.9867L24.6442 11.2746ZM24.6822 10.4591C24.6388 10.6721 24.5916 10.8842 24.5406 11.0954L24.8321 11.1659C24.8841 10.9512 24.9321 10.7355 24.9762 10.5189L24.6822 10.4591ZM23.4331 3.46026C24.1607 3.88714 24.6513 4.76204 24.8698 5.98386C25.0877 7.20269 25.0296 8.7431 24.6822 10.4592L24.9762 10.5188C25.3286 8.77824 25.3916 7.19795 25.1651 5.93106C24.9391 4.66717 24.4198 3.69135 23.5849 3.20151L23.4331 3.46026ZM17.186 5.67193C18.414 4.58451 19.6287 3.82002 20.7141 3.43524C21.8013 3.04978 22.7374 3.05194 23.4331 3.46025L23.5849 3.20152C22.7826 2.73065 21.7446 2.75159 20.6138 3.15249C19.4811 3.55408 18.2336 4.34355 16.9871 5.44733L17.186 5.67193ZM16.4767 6.33438C16.7077 6.10744 16.9442 5.88653 17.1861 5.67182L16.987 5.44744C16.7413 5.66552 16.501 5.8899 16.2664 6.1204L16.4767 6.33438ZM15.7951 5.89135C15.955 6.03616 16.1123 6.18398 16.2668 6.33476L16.4763 6.12002C16.3191 5.96665 16.1591 5.81627 15.9964 5.66896L15.7951 5.89135ZM9.21852 3.4983C9.9446 3.07059 10.9328 3.07501 12.0807 3.4921C13.2261 3.90831 14.5079 4.7283 15.7952 5.89145L15.9963 5.66886C14.6903 4.48879 13.3758 3.64352 12.1831 3.21014C10.9928 2.77763 9.90096 2.74811 9.06625 3.23982L9.21852 3.4983ZM7.97978 10.1163C7.66709 8.49029 7.62275 7.03671 7.83742 5.88652C8.05255 4.73385 8.52277 3.90817 9.21852 3.4983L9.06625 3.23982C8.26541 3.71159 7.76568 4.63575 7.54251 5.83147C7.31888 7.02968 7.36789 8.52305 7.68518 10.1729L7.97978 10.1163ZM8.19039 11.0767C8.1122 10.7584 8.04196 10.4381 7.97976 10.1162L7.6852 10.1731C7.74835 10.5 7.81967 10.8252 7.89905 11.1483L8.19039 11.0767ZM7.03203 11.594C7.36875 11.4746 7.7211 11.3622 8.08638 11.2566L8.00306 10.9684C7.63273 11.0755 7.27468 11.1897 6.93173 11.3113L7.03203 11.594ZM2.15 15.9753C2.15 15.1568 2.60339 14.3333 3.45104 13.5726C4.29765 12.8128 5.52409 12.129 7.03203 11.594L6.93173 11.3113C5.39945 11.8549 4.13495 12.5557 3.25067 13.3493C2.36744 14.1419 1.85 15.0403 1.85 15.9753H2.15ZM7.30032 20.5627C5.72992 20.0165 4.43612 19.2957 3.53785 18.4941C2.6377 17.6908 2.15 16.8213 2.15 15.9753H1.85C1.85 16.9404 2.40443 17.8847 3.3381 18.7179C4.27365 19.5528 5.60538 20.2909 7.20178 20.8461L7.30032 20.5627ZM8.06942 20.8073C7.811 20.7323 7.55449 20.6507 7.30013 20.5626L7.20197 20.8461C7.46116 20.9359 7.72249 21.0189 7.98572 21.0954L8.06942 20.8073ZM7.9494 22.0223C8.01453 21.6752 8.08917 21.33 8.17325 20.9871L7.88188 20.9157C7.79649 21.2639 7.72069 21.6145 7.65454 21.967L7.9494 22.0223ZM9.23903 28.5165C8.54397 28.1085 8.06902 27.2981 7.84468 26.1696C7.62073 25.043 7.65141 23.6194 7.94943 22.0222L7.65452 21.9672C7.35192 23.5889 7.31683 25.0529 7.55044 26.2281C7.78366 27.4013 8.28957 28.307 9.08716 28.7752L9.23903 28.5165ZM15.7123 26.2673C14.4626 27.3789 13.2025 28.1593 12.0718 28.5506C10.9385 28.9428 9.95683 28.9377 9.23901 28.5165L9.08718 28.7752C9.91108 29.2587 10.9941 29.241 12.1699 28.8341C13.3482 28.4263 14.6418 27.621 15.9117 26.4914L15.7123 26.2673ZM16.306 25.7104C16.1074 25.9058 15.9094 26.092 15.7123 26.2673L15.9117 26.4914C16.1129 26.3124 16.3147 26.1227 16.5164 25.9242L16.306 25.7104ZM17.2864 26.4253C17.0232 26.1943 16.7664 25.9558 16.5163 25.7103L16.3061 25.9243C16.5602 26.1738 16.8211 26.4161 17.0885 26.6508L17.2864 26.4253ZM23.4537 28.5305C22.7599 28.9392 21.8344 28.9531 20.763 28.5878C19.6931 28.2229 18.4971 27.4854 17.2863 26.4252L17.0887 26.6509C18.3185 27.7278 19.548 28.4904 20.6662 28.8717C21.783 29.2526 22.8084 29.2588 23.606 28.7889L23.4537 28.5305ZM24.7735 21.6945C25.0959 23.3518 25.1311 24.8532 24.8994 26.0467C24.667 27.2432 24.1716 28.1076 23.4537 28.5305L23.606 28.7889C24.4284 28.3044 24.9534 27.3422 25.1939 26.1039C25.4349 24.8624 25.3954 23.3206 25.0679 21.6372L24.7735 21.6945ZM24.6028 20.9202C24.6671 21.1837 24.7244 21.4419 24.7735 21.6944L25.0679 21.6372C25.0179 21.3794 24.9595 21.1165 24.8942 20.8491L24.6028 20.9202ZM25.2346 20.5729C25.0624 20.6309 24.8857 20.6868 24.7054 20.741L24.7916 21.0283C24.9747 20.9733 25.1547 20.9164 25.3305 20.8571L25.2346 20.5729ZM30.5665 15.9753C30.5665 16.832 30.0659 17.7016 29.1361 18.5036C28.208 19.304 26.8685 20.022 25.2346 20.5728L25.3305 20.8571C26.9887 20.2981 28.3661 19.5638 29.332 18.7308C30.2961 17.8992 30.8664 16.954 30.8664 15.9753H30.5665ZM25.5612 11.5686C27.1 12.1077 28.3577 12.7966 29.2276 13.5614C30.099 14.3274 30.5665 15.1552 30.5665 15.9753H30.8664C30.8664 15.0356 30.3318 14.1325 29.4257 13.336C28.5182 12.5383 27.223 11.8329 25.6604 11.2855L25.5612 11.5686ZM24.4577 19.8272C24.6232 19.7772 24.7859 19.7257 24.9445 19.6723L24.8488 19.3879C24.6936 19.4402 24.5339 19.4908 24.371 19.54L24.4577 19.8272ZM22.8243 16.045C23.422 17.3261 23.91 18.5648 24.2711 19.7281L24.5576 19.6391C24.1918 18.4608 23.6986 17.2093 23.0962 15.9181L22.8243 16.045ZM24.2143 12.2898C23.8632 13.4459 23.3942 14.6687 22.8238 15.9193L23.0967 16.0438C23.6719 14.7828 24.1459 13.5475 24.5013 12.377L24.2143 12.2898ZM25.2611 12.466C24.9837 12.3687 24.696 12.2768 24.4003 12.1895L24.3154 12.4773C24.607 12.5633 24.8898 12.6537 25.1618 12.7491L25.2611 12.466ZM29.6398 15.9753C29.6398 15.3736 29.1869 14.7257 28.4412 14.1259C27.6871 13.5195 26.6012 12.9354 25.2611 12.466L25.1619 12.7491C26.4792 13.2106 27.5324 13.7801 28.2532 14.3597C28.9822 14.946 29.3398 15.5165 29.3398 15.9753H29.6398ZM24.9446 19.6722C26.3776 19.189 27.5424 18.5756 28.3523 17.9345C29.1534 17.3004 29.6398 16.6125 29.6398 15.9753H29.3398C29.3398 16.4679 28.9508 17.0781 28.1661 17.6993C27.39 18.3136 26.2582 18.9127 24.8487 19.388L24.9446 19.6722ZM24.0029 25.7921C24.1976 24.7244 24.1543 23.3691 23.8645 21.8797L23.5701 21.9369C23.855 23.402 23.8938 24.7179 23.7078 25.7383L24.0029 25.7921ZM22.9913 27.7085C23.4744 27.4239 23.8296 26.7425 24.0029 25.7921L23.7078 25.7383C23.5389 26.6642 23.2063 27.2336 22.839 27.45L22.9913 27.7085ZM17.8888 25.7046C18.9414 26.6264 19.9617 27.2675 20.8401 27.6105C21.7092 27.95 22.477 28.0114 22.9913 27.7085L22.839 27.45C22.4482 27.6802 21.7958 27.6617 20.9492 27.3311C20.1118 27.004 19.1209 26.3848 18.0865 25.4789L17.8888 25.7046ZM17.1606 25.029C17.4041 25.2675 17.6473 25.4931 17.8888 25.7046L18.0864 25.4789C17.8494 25.2713 17.6103 25.0495 17.3705 24.8146L17.1606 25.029ZM19.5485 21.7272C18.7624 22.8853 17.9578 23.9268 17.1539 24.8215L17.3771 25.022C18.1915 24.1156 19.0043 23.063 19.7967 21.8957L19.5485 21.7272ZM23.5275 21.0554C22.3459 21.3333 21.0414 21.5373 19.6591 21.6621L19.6861 21.9609C21.0804 21.835 22.399 21.629 23.5962 21.3474L23.5275 21.0554ZM23.8645 21.8796C23.8192 21.6465 23.7666 21.4085 23.7076 21.166L23.4161 21.2368C23.4741 21.4754 23.5257 21.7089 23.5701 21.9369L23.8645 21.8796ZM9.70015 27.6937C10.1846 27.9779 10.944 27.9507 11.8407 27.6284L11.7393 27.346C10.8678 27.6593 10.2187 27.6501 9.85195 27.4349L9.70015 27.6937ZM8.85983 22.2C8.60087 23.5881 8.56472 24.8071 8.71114 25.7518C8.85601 26.6865 9.18637 27.3922 9.70014 27.6937L9.85196 27.4349C9.45984 27.2048 9.14904 26.6185 9.00761 25.7059C8.86773 24.8033 8.90014 23.6197 9.15474 22.255L8.85983 22.2ZM9.0713 21.2216C8.99194 21.5456 8.92144 21.8718 8.85986 22.1999L9.15471 22.2552C9.21529 21.9325 9.28463 21.6116 9.36268 21.2929L9.0713 21.2216ZM13.0992 21.6779C11.7133 21.5635 10.4182 21.3739 9.24993 21.1109L9.18405 21.4036C10.3681 21.6701 11.6772 21.8616 13.0745 21.9768L13.0992 21.6779ZM15.6625 24.8253C14.8289 23.9149 14.0009 22.8744 13.2098 21.7415L12.9638 21.9132C13.7616 23.0557 14.5978 24.1067 15.4412 25.0279L15.6625 24.8253ZM15.1046 25.5512C15.2929 25.3833 15.4771 25.2107 15.6571 25.0335L15.4466 24.8197C15.2702 24.9934 15.0895 25.1627 14.9049 25.3273L15.1046 25.5512ZM11.8408 27.6284C12.8481 27.2662 13.9808 26.5509 15.1044 25.5513L14.905 25.3272C13.8003 26.31 12.7 27.0007 11.7393 27.3461L11.8408 27.6284ZM4.19999 17.8256C5.01117 18.5324 6.18613 19.1735 7.59854 19.6648L7.6971 19.3814C6.30897 18.8986 5.17117 18.2739 4.39706 17.5994L4.19999 17.8256ZM3.07666 15.9753C3.07666 16.5415 3.47743 17.1958 4.19997 17.8256L4.39708 17.5994C3.69521 16.9877 3.37666 16.4093 3.37666 15.9753H3.07666ZM7.3356 12.4902C6.02397 12.9555 4.96757 13.533 4.23591 14.1345C3.51144 14.7301 3.07666 15.3739 3.07666 15.9753H3.37666C3.37666 15.5128 3.72138 14.9459 4.42643 14.3663C5.1243 13.7925 6.14745 13.2301 7.43591 12.7729L7.3356 12.4902ZM8.33266 12.1709C7.99736 12.2673 7.66494 12.3738 7.3358 12.4901L7.43572 12.773C7.7593 12.6587 8.08605 12.554 8.41559 12.4592L8.33266 12.1709ZM9.91043 15.9439C9.344 14.6916 8.87505 13.4542 8.51772 12.2717L8.23054 12.3584C8.59205 13.5548 9.06581 14.8046 9.6371 16.0675L9.91043 15.9439ZM8.50034 19.7922C8.86096 18.5957 9.33666 17.3385 9.91048 16.0674L9.63705 15.944C9.05841 17.2257 8.57791 18.4953 8.2131 19.7056L8.50034 19.7922ZM7.59875 19.6649C7.83556 19.7468 8.0743 19.8229 8.31476 19.8929L8.39867 19.6049C8.16297 19.5362 7.92898 19.4617 7.6969 19.3814L7.59875 19.6649ZM9.68086 4.32025C9.16739 4.6227 8.84374 5.34692 8.70755 6.30269C8.56973 7.26995 8.61701 8.51828 8.88909 9.93321L9.18369 9.87655C8.91603 8.48463 8.87263 7.2709 9.00455 6.34501C9.13812 5.40762 9.44464 4.80757 9.83312 4.57874L9.68086 4.32025ZM15.1817 6.60237C14.0531 5.58264 12.9479 4.86415 11.9969 4.472C11.0567 4.08434 10.2256 3.99939 9.68086 4.32025L9.83312 4.57874C10.2492 4.33365 10.9606 4.36923 11.8825 4.74935C12.7936 5.125 13.8701 5.82157 14.9805 6.82497L15.1817 6.60237ZM15.6165 7.0109C15.4714 6.86978 15.3263 6.73311 15.1817 6.60238L14.9805 6.82496C15.1221 6.95288 15.2645 7.087 15.4074 7.22596L15.6165 7.0109ZM13.1888 10.2848C13.973 9.15853 14.7933 8.12597 15.6226 7.21969L15.4013 7.01717C14.5621 7.93425 13.7336 8.97738 12.9426 10.1134L13.1888 10.2848ZM9.26747 10.9513C10.4489 10.6789 11.7351 10.4753 13.0798 10.3484L13.0517 10.0497C11.6952 10.1777 10.3957 10.3833 9.20006 10.659L9.26747 10.9513ZM8.88912 9.93337C8.94794 10.2374 9.01427 10.5401 9.08809 10.8409L9.37944 10.7694C9.30682 10.4734 9.24154 10.1756 9.18366 9.87639L8.88912 9.93337ZM20.423 11.6357C20.7232 12.1146 21.0133 12.6 21.293 13.0916L21.5537 12.9433C21.2719 12.4479 20.9797 11.9588 20.6772 11.4764L20.423 11.6357ZM23.2025 11.8756C22.3729 11.6829 21.4901 11.5255 20.5692 11.4073L20.531 11.7048C21.4427 11.8219 22.3155 11.9775 23.1346 12.1678L23.2025 11.8756ZM22.3877 14.5961C22.7527 13.7269 23.0629 12.8781 23.3119 12.0657L23.0251 11.9778C22.7793 12.7796 22.4726 13.6189 22.1111 14.48L22.3877 14.5961ZM21.293 13.0916C21.5773 13.5912 21.8518 14.0964 22.1162 14.6071L22.3826 14.4691C22.1163 13.9549 21.84 13.4462 21.5537 12.9432L21.293 13.0916ZM18.1826 9.99756C17.6225 9.23828 17.0526 8.53775 16.483 7.90979L16.2608 8.11134C16.8229 8.73096 17.3864 9.42352 17.9411 10.1756L18.1826 9.99756ZM14.6749 10.2356C15.8009 10.182 16.9287 10.1823 18.0546 10.2364L18.0691 9.93677C16.9336 9.88214 15.7962 9.88191 14.6607 9.93596L14.6749 10.2356ZM16.261 7.90956C15.6828 8.5445 15.1082 9.24384 14.5475 9.99616L14.7881 10.1754C15.3433 9.43034 15.9117 8.73866 16.4828 8.11156L16.261 7.90956ZM10.6114 14.605C10.8689 14.097 11.1381 13.5951 11.4187 13.0999L11.1576 12.952C10.8748 13.4513 10.6034 13.9572 10.3438 14.4694L10.6114 14.605ZM9.42161 12.0523C9.67273 12.8759 9.98004 13.7282 10.339 14.5946L10.6162 14.4798C10.2606 13.6217 9.95665 12.7785 9.70857 11.9648L9.42161 12.0523ZM12.1496 11.4049C11.2349 11.5212 10.3563 11.6745 9.53177 11.8623L9.5984 12.1548C10.4125 11.9693 11.2814 11.8177 12.1874 11.7025L12.1496 11.4049ZM11.4187 13.0999C11.6996 12.6042 11.9919 12.1154 12.2954 11.6336L12.0416 11.4737C11.7356 11.9594 11.4409 12.4523 11.1577 12.952L11.4187 13.0999ZM9.51574 20.1995C10.3406 20.3823 11.2328 20.5278 12.1777 20.6351L12.2116 20.337C11.2756 20.2307 10.3939 20.0868 9.58063 19.9066L9.51574 20.1995ZM10.3404 17.4158C9.97384 18.3006 9.65976 19.1712 9.40468 20.0094L9.69169 20.0967C9.94368 19.2687 10.2544 18.4073 10.6175 17.5306L10.3404 17.4158ZM11.4235 18.9112C11.1416 18.4157 10.8713 17.9136 10.6127 17.4052L10.3453 17.5412C10.606 18.0538 10.8786 18.56 11.1627 19.0595L11.4235 18.9112ZM12.3214 20.4058C12.0105 19.915 11.7111 19.4166 11.4235 18.9112L11.1627 19.0595C11.4527 19.569 11.7545 20.0715 12.068 20.5664L12.3214 20.4058ZM14.5579 22.0138C15.127 22.7769 15.71 23.4868 16.295 24.1293L16.5168 23.9273C15.939 23.2927 15.3621 22.5904 14.7984 21.8344L14.5579 22.0138ZM16.3582 21.8072C15.7904 21.8072 15.2318 21.7961 14.6841 21.7742L14.6721 22.074C15.224 22.096 15.7865 22.1072 16.3582 22.1072V21.8072ZM18.0849 21.7682C17.5177 21.7939 16.9413 21.8072 16.3582 21.8072V22.1072C16.9459 22.1072 17.5268 22.0938 18.0985 22.0679L18.0849 21.7682ZM16.5178 24.1282C17.0836 23.4942 17.6515 22.7829 18.2133 22.0059L17.9702 21.8301C17.4136 22.5999 16.8521 23.303 16.294 23.9284L16.5178 24.1282ZM23.3686 19.9541C23.1099 19.1295 22.7844 18.2633 22.3989 17.3689L22.1234 17.4877C22.5054 18.3739 22.8271 19.2304 23.0823 20.0439L23.3686 19.9541ZM20.5649 20.6126C21.5167 20.4964 22.4209 20.3398 23.2594 20.1451L23.1915 19.8529C22.3646 20.0449 21.471 20.1998 20.5285 20.3148L20.5649 20.6126ZM21.2978 18.9028C21.0146 19.4026 20.7217 19.8967 20.4192 20.3847L20.6742 20.5428C20.9788 20.0514 21.2737 19.5539 21.5588 19.0506L21.2978 18.9028ZM22.1275 17.3602C21.8622 17.8806 21.5856 18.3949 21.2978 18.9028L21.5588 19.0506C21.8487 18.539 22.1275 18.0208 22.3948 17.4965L22.1275 17.3602ZM19.1135 20.6971C19.5984 19.9559 20.0596 19.1987 20.4961 18.4269L20.235 18.2792C19.8016 19.0454 19.3438 19.797 18.8624 20.5329L19.1135 20.6971ZM16.3582 20.8589C17.259 20.8589 18.1431 20.8269 18.9988 20.7646L18.9771 20.4654C18.1288 20.5271 17.2519 20.5589 16.3582 20.5589V20.8589ZM13.7484 20.7751C14.5889 20.8305 15.4615 20.8589 16.3582 20.8589V20.5589C15.4678 20.5589 14.6018 20.5307 13.7681 20.4757L13.7484 20.7751ZM12.2244 18.4341C12.6658 19.2102 13.136 19.9691 13.6338 20.7091L13.8827 20.5417C13.3891 19.8079 12.9229 19.0554 12.4852 18.2857L12.2244 18.4341ZM10.9941 16.0695C11.3746 16.8733 11.7851 17.662 12.2244 18.4341L12.4852 18.2857C12.0495 17.5202 11.6426 16.7381 11.2652 15.9411L10.9941 16.0695ZM12.2206 13.5757C11.7828 14.3482 11.3736 15.1373 10.994 15.9413L11.2653 16.0694C11.6417 15.2721 12.0474 14.4896 12.4816 13.7237L12.2206 13.5757ZM13.6189 11.3104C13.1248 12.0473 12.6584 12.803 12.2206 13.5758L12.4816 13.7236C12.9157 12.9574 13.3782 12.2081 13.8681 11.4775L13.6189 11.3104ZM16.3584 11.1438C15.4693 11.1438 14.5898 11.1784 13.732 11.2444L13.755 11.5435C14.6052 11.4781 15.477 11.4438 16.3584 11.4438V11.1438ZM18.9896 11.2452C18.132 11.1787 17.2513 11.1438 16.3584 11.1438V11.4438C17.2436 11.4438 18.1165 11.4784 18.9664 11.5443L18.9896 11.2452ZM20.4921 13.5687C20.0553 12.8 19.5919 12.0472 19.1029 11.3117L18.8531 11.4778C19.3382 12.2074 19.7979 12.9543 20.2312 13.717L20.4921 13.5687ZM21.7344 15.9219C21.3455 15.124 20.9311 14.3391 20.492 13.5686L20.2313 13.7171C20.6673 14.4821 21.0786 15.2612 21.4648 16.0533L21.7344 15.9219ZM20.496 18.4271C20.9367 17.6507 21.3499 16.8586 21.735 16.0523L21.4643 15.923C21.0822 16.723 20.6723 17.5088 20.2351 18.279L20.496 18.4271ZM23.7747 10.2669C24.0792 8.76285 24.1388 7.4303 23.9978 6.3969C23.9273 5.88025 23.806 5.43373 23.6367 5.07664C23.4678 4.72025 23.2468 4.44417 22.9722 4.28299L22.8204 4.54171C23.0266 4.66274 23.2129 4.88279 23.3657 5.20512C23.5181 5.52675 23.6329 5.94155 23.7005 6.43747C23.8359 7.42921 23.7804 8.72685 23.4807 10.2074L23.7747 10.2669ZM23.6444 10.8532C23.6913 10.6586 23.7347 10.4632 23.7747 10.2671L23.4807 10.2072C23.4415 10.3998 23.3988 10.5918 23.3528 10.7829L23.6444 10.8532ZM19.6447 10.3501C20.9932 10.4789 22.2802 10.686 23.4643 10.9641L23.5329 10.672C22.3343 10.3906 21.0338 10.1814 19.6732 10.0515L19.6447 10.3501ZM17.1208 7.21888C17.9363 8.11304 18.7497 9.14728 19.5355 10.286L19.7824 10.1156C18.9901 8.96742 18.1684 7.92229 17.3424 7.01672L17.1208 7.21888ZM17.7923 6.38928C17.5654 6.59077 17.3434 6.79798 17.1265 7.01073L17.3366 7.22487C17.5499 7.01561 17.7683 6.81181 17.9915 6.61363L17.7923 6.38928ZM22.9722 4.28298C22.4572 3.98072 21.6769 4.05745 20.7943 4.41508C19.9011 4.77696 18.8614 5.44246 17.7925 6.38916L17.9914 6.61375C19.0425 5.68282 20.0536 5.03885 20.9069 4.69312C21.7707 4.34314 22.4326 4.31414 22.8204 4.54172L22.9722 4.28298ZM16.3582 13.5159C17.6892 13.5159 18.7725 14.6146 18.7725 15.9754H19.0725C19.0725 14.4539 17.8598 13.2159 16.3582 13.2159V13.5159ZM13.9439 15.9754C13.9439 14.6146 15.0274 13.5159 16.3582 13.5159V13.2159C14.8568 13.2159 13.6439 14.4539 13.6439 15.9754H13.9439ZM16.3582 18.435C15.0274 18.435 13.9439 17.3363 13.9439 15.9754H13.6439C13.6439 17.497 14.8568 18.735 16.3582 18.735V18.435ZM18.7725 15.9754C18.7725 17.3363 17.6892 18.435 16.3582 18.435V18.735C17.8598 18.735 19.0725 17.497 19.0725 15.9754H18.7725Z" fill="#E2BF72"/>
</svg>
