<svg width="32" height="32" viewBox="0 0 32 32" fill="none" xmlns="http://www.w3.org/2000/svg">
<path d="M26.6667 4H5.33335C3.86269 4 2.66669 5.196 2.66669 6.66667V25.3333C2.66669 26.804 3.86269 28 5.33335 28H26.6667C28.1374 28 29.3334 26.804 29.3334 25.3333V6.66667C29.3334 5.196 28.1374 4 26.6667 4ZM5.33335 25.3333V9.33333H26.6667L26.6694 25.3333H5.33335Z" fill="#E2BF72"/>
<path d="M12.3907 12.3906L7.44806 17.3333L12.3907 22.276L14.2761 20.3906L11.2187 17.3333L14.2761 14.276L12.3907 12.3906ZM19.6094 12.3906L17.7241 14.276L20.7814 17.3333L17.7241 20.3906L19.6094 22.276L24.5521 17.3333L19.6094 12.3906Z" fill="#E2BF72"/>
</svg>
