<svg width="32" height="32" viewBox="0 0 32 32" fill="none" xmlns="http://www.w3.org/2000/svg">
<path d="M16.7669 10.3461V8.67304V7H3V10.3461H7.88503V25.6216H11.8819V10.3461H16.7669Z" fill="#E2BF72"/>
<path d="M27.9136 7.56738C27.6768 7.48009 26.9958 7.32006 26.3889 7.20367C23.5467 6.69449 20.7489 7.16003 19.0614 8.42572C17.0778 9.89508 16.6337 13.1248 18.114 15.2342C18.7801 16.1944 19.4907 16.6891 21.7407 17.7802C24.2869 19.0022 24.9086 19.555 24.9086 20.6171C24.9086 21.1699 24.8346 21.359 24.4645 21.6936C23.8724 22.2465 22.9102 22.4792 21.6075 22.3919C20.3048 22.3046 19.0614 21.8828 18.0992 21.199L17.359 20.6753V24.7196L18.2916 25.0251C20.897 25.8689 24.2277 25.7817 26.2705 24.836C27.2327 24.385 28.2097 23.4103 28.6538 22.4501C29.1275 21.4318 29.1127 19.1622 28.6242 18.0857C28.0765 16.8782 26.8774 15.9035 24.5089 14.7542C23.3839 14.2013 22.2292 13.5321 21.9184 13.2412C21.4299 12.7902 21.3559 12.6301 21.3559 12.0482C21.3559 11.5099 21.4299 11.3063 21.7851 10.9716C22.022 10.7389 22.4809 10.4625 22.7918 10.3752C24.0944 9.99692 26.2261 10.2733 27.5584 11.0153C27.9136 11.2044 28.2245 11.3644 28.2541 11.3644C28.2837 11.3644 28.3133 10.5497 28.3133 9.54592V7.72741L27.9136 7.56738Z" fill="#E2BF72"/>
</svg>
