<svg width="32" height="32" viewBox="0 0 32 32" fill="none" xmlns="http://www.w3.org/2000/svg">
<path d="M16 2.66675C8.64802 2.66675 2.66669 8.64808 2.66669 16.0001C2.66669 23.3521 8.64802 29.3334 16 29.3334C23.352 29.3334 29.3334 23.3521 29.3334 16.0001C29.3334 8.64808 23.352 2.66675 16 2.66675ZM26.5747 14.6667H22.8894C22.7249 11.7484 21.9084 8.90404 20.5 6.34275C22.1323 7.10548 23.5452 8.26861 24.6073 9.72396C25.6693 11.1793 26.3461 12.8796 26.5747 14.6667ZM16.7067 5.36941C18.0867 7.18808 19.9427 10.4094 20.2094 14.6667H12.04C12.2254 11.2054 13.3654 7.96275 15.308 5.36808C15.5374 5.35475 15.7667 5.33341 16 5.33341C16.2387 5.33341 16.472 5.35475 16.7067 5.36941ZM11.584 6.30275C10.272 8.82408 9.51469 11.6827 9.37335 14.6667H5.42535C5.65571 12.8639 6.3422 11.1496 7.41988 9.68597C8.49756 8.22239 9.93079 7.05793 11.584 6.30275ZM5.42535 17.3334H9.39069C9.57202 20.5054 10.2774 23.3041 11.4654 25.6401C9.84161 24.8747 8.43699 23.7123 7.3813 22.2605C6.32561 20.8086 5.6529 19.114 5.42535 17.3334ZM15.2667 26.6307C13.3987 24.3667 12.296 21.1947 12.0547 17.3334H20.2054C19.928 21.0307 18.716 24.2614 16.7347 26.6294C16.492 26.6454 16.2494 26.6667 16 26.6667C15.752 26.6667 15.5107 26.6454 15.2667 26.6307ZM20.6147 25.6014C21.888 23.2094 22.6654 20.4001 22.8694 17.3334H26.5734C26.3483 19.0991 25.6853 20.7805 24.6446 22.2246C23.6039 23.6686 22.2186 24.8294 20.6147 25.6014Z" fill="#E2BF72"/>
</svg>
