<svg width="32" height="32" viewBox="0 0 32 32" fill="none" xmlns="http://www.w3.org/2000/svg">
<path d="M19.3534 20.0342C20.2092 21.4438 21.3226 22.4799 23.2918 22.4799C24.9461 22.4799 26.0029 21.6458 26.0029 20.4934C26.0029 19.1125 24.9171 18.6233 23.0963 17.8199L22.0982 17.3879C19.2172 16.1498 17.3033 14.5988 17.3033 11.3198C17.3033 8.29935 19.5847 6 23.1502 6C25.6886 6 27.5135 6.89117 28.8286 9.22454L25.7196 11.2382C25.0351 10.0001 24.2967 9.5123 23.1502 9.5123C21.9808 9.5123 21.2397 10.2606 21.2397 11.2382C21.2397 12.4464 21.9815 12.9355 23.6945 13.6838L24.6926 14.1151C28.0847 15.5825 30 17.0784 30 20.4417C30 24.0676 27.1763 26.0541 23.3842 26.0541C19.6764 26.0541 17.281 24.2717 16.1089 21.9356L19.3534 20.0342ZM5.24989 20.3832C5.87707 21.5057 6.4476 22.4547 7.81931 22.4547C9.131 22.4547 9.95848 21.937 9.95848 19.924V6.22993H13.9509V19.9785C13.9509 24.1486 11.5271 26.0466 7.98926 26.0466C4.79265 26.0466 2.94145 24.3778 2 22.3679L5.24989 20.3832Z" fill="#E2BF72"/>
</svg>
