<svg width="48" height="48" viewBox="0 0 48 48" fill="none" xmlns="http://www.w3.org/2000/svg">
<path d="M15.83 32.764C15.3822 32.764 14.9306 32.61 14.57 32.2965L4.96875 23.9532L15.1032 15.1461C15.885 14.4691 17.0842 14.534 17.7806 15.3001C18.477 16.0661 18.4068 17.2384 17.6231 17.9192L10.6802 23.9532L17.0899 29.5216C17.8736 30.2024 17.9438 31.3746 17.2474 32.1407C16.8736 32.5544 16.3518 32.764 15.83 32.764ZM32.803 32.7603L42.9375 23.9532L33.3362 15.6098C32.5525 14.9291 31.3533 14.9977 30.6589 15.7638C29.9625 16.5299 30.0327 17.7022 30.8163 18.3829L37.2261 23.9532L30.2832 29.9853C29.4995 30.6661 29.4293 31.8384 30.1257 32.6044C30.4995 33.0181 31.0213 33.2277 31.5431 33.2277C31.9909 33.2277 32.4425 33.0737 32.803 32.7603ZM23.9266 35.3887L27.7215 13.1298C27.8942 12.1189 27.1959 11.1636 26.1618 10.9948C25.1239 10.8242 24.1486 11.5087 23.9797 12.5196L20.1847 34.7784C20.012 35.7893 20.7103 36.7446 21.7445 36.9134C21.8507 36.9301 21.9532 36.9375 22.0575 36.9375C22.9683 36.9375 23.7729 36.2939 23.9266 35.3887Z" fill="#6F8EE1"/>
</svg>
