<svg width="48" height="48" viewBox="0 0 48 48" fill="none" xmlns="http://www.w3.org/2000/svg">
<path d="M27.5456 28.8951C28.7067 30.7929 30.2175 32.1878 32.8893 32.1878C35.1339 32.1878 36.5678 31.0649 36.5678 29.5134C36.5678 27.6541 35.0946 26.9956 32.624 25.9139L31.2697 25.3323C27.3607 23.6653 24.7639 21.5771 24.7639 17.1624C24.7639 13.0958 27.8594 10 32.6972 10C36.1414 10 38.6174 11.1998 40.4017 14.3414L36.1835 17.0525C35.2547 15.3855 34.2527 14.7288 32.6972 14.7288C31.1105 14.7288 30.1049 15.7363 30.1049 17.0525C30.1049 18.6791 31.1114 19.3377 33.4356 20.3452L34.7899 20.9258C39.3925 22.9015 41.9912 24.9155 41.9912 29.4438C41.9912 34.3256 38.1599 37 33.0147 37C27.9839 37 24.7337 34.6003 23.1434 31.4551L27.5456 28.8951ZM8.40953 29.365C9.26051 30.8763 10.0346 32.1539 11.8958 32.1539C13.6755 32.1539 14.7983 31.4569 14.7983 28.7468V10.3096H20.2153V28.82C20.2153 34.4345 16.9266 36.9899 12.1264 36.9899C7.78914 36.9899 5.27738 34.7432 4 32.0372L8.40953 29.365Z" fill="#181717"/>
</svg>
