<svg width="48" height="48" viewBox="0 0 48 48" fill="none" xmlns="http://www.w3.org/2000/svg">
<path d="M23.9923 37.9428C23.8432 37.9428 23.7039 37.903 23.5746 37.8334L22.2518 37.0477C22.0529 36.9383 22.1524 36.8985 22.2121 36.8786C22.4806 36.7891 22.5303 36.7692 22.8088 36.6101C22.8386 36.5902 22.8785 36.6002 22.9083 36.62L23.9228 37.2267C23.9625 37.2466 24.0123 37.2466 24.042 37.2267L28.0104 34.9293C28.0502 34.9094 28.0701 34.8695 28.0701 34.8199V30.2349C28.0701 30.1851 28.0502 30.1454 28.0104 30.1255L24.042 27.838C24.0023 27.818 23.9525 27.818 23.9228 27.838L19.9544 30.1255C19.9146 30.1453 19.8947 30.1951 19.8947 30.2348V34.8198C19.8947 34.8596 19.9146 34.9093 19.9544 34.9293L21.0385 35.5558C21.6253 35.8542 21.9933 35.5061 21.9933 35.158V30.6327C21.9933 30.573 22.043 30.5133 22.1126 30.5133H22.6198C22.6795 30.5133 22.7392 30.563 22.7392 30.6327V35.158C22.7392 35.9437 22.3115 36.4012 21.5656 36.4012C21.3368 36.4012 21.1578 36.4012 20.6506 36.1525L19.6063 35.5558C19.3477 35.4067 19.1886 35.1281 19.1886 34.8298V30.2448C19.1886 29.9465 19.3477 29.6679 19.6063 29.5188L23.5746 27.2213C23.8233 27.0821 24.1615 27.0821 24.4101 27.2213L28.3784 29.5188C28.637 29.6679 28.7962 29.9465 28.7962 30.2448V34.8298C28.7962 35.1281 28.637 35.4067 28.3784 35.5558L24.4101 37.8533C24.2807 37.913 24.1316 37.9428 23.9924 37.9428H23.9923ZM25.2156 34.79C23.4752 34.79 23.1171 33.9944 23.1171 33.3181C23.1171 33.2583 23.1669 33.1987 23.2365 33.1987H23.7537C23.8133 33.1987 23.863 33.2385 23.863 33.2982C23.9426 33.8253 24.1714 34.0839 25.2256 34.0839C26.061 34.0839 26.4192 33.8949 26.4192 33.4473C26.4192 33.1887 26.3196 32.9998 25.0168 32.8705C23.9327 32.761 23.2564 32.5224 23.2564 31.6571C23.2564 30.8515 23.9327 30.3741 25.0665 30.3741C26.3395 30.3741 26.9661 30.8117 27.0457 31.7664C27.0457 31.7964 27.0358 31.8261 27.0159 31.856C26.9959 31.8759 26.9661 31.8958 26.9363 31.8958H26.4191C26.3694 31.8958 26.3196 31.856 26.3097 31.8063C26.1904 31.2593 25.882 31.0802 25.0665 31.0802C24.1515 31.0802 24.042 31.3985 24.042 31.6372C24.042 31.9256 24.1714 32.0151 25.4046 32.1742C26.628 32.3334 27.2049 32.5622 27.2049 33.4175C27.1949 34.2927 26.4788 34.79 25.2156 34.79Z" fill="#539E43"/>
<path d="M11.6794 20.0107C11.6794 19.8317 11.5799 19.6625 11.4208 19.573L7.20384 17.1463C7.13414 17.1064 7.05463 17.0865 6.97511 17.0766H6.93527C6.85576 17.0766 6.77616 17.1064 6.70654 17.1463L2.48955 19.573C2.33035 19.6625 2.23096 19.8316 2.23096 20.0107L2.24094 26.535C2.24094 26.6245 2.29068 26.714 2.37019 26.7538C2.44979 26.8036 2.54918 26.8036 2.61889 26.7538L5.12521 25.3217C5.28432 25.2322 5.3838 25.0631 5.3838 24.8841V21.8307C5.3838 21.6517 5.4832 21.4826 5.64239 21.3931L6.70654 20.7765C6.78614 20.7267 6.87563 20.7068 6.96513 20.7068C7.05463 20.7068 7.14412 20.7267 7.21383 20.7765L8.27797 21.3931C8.43717 21.4826 8.53656 21.6516 8.53656 21.8307V24.8841C8.53656 25.0631 8.63604 25.2322 8.79515 25.3217L11.3015 26.7538C11.3811 26.8036 11.4805 26.8036 11.5601 26.7538C11.6397 26.714 11.6894 26.6245 11.6894 26.535L11.6794 20.0107ZM31.9488 11.0296C31.8693 10.9898 31.7698 10.9898 31.7001 11.0296C31.6206 11.0794 31.5709 11.1589 31.5709 11.2484V17.7132C31.5709 17.7728 31.5411 17.8325 31.4814 17.8723C31.4218 17.9021 31.362 17.9021 31.3024 17.8723L30.2482 17.2656C30.1709 17.2216 30.0835 17.1985 29.9945 17.1985C29.9056 17.1985 29.8182 17.2216 29.7409 17.2656L25.5239 19.7023C25.3648 19.7918 25.2653 19.9609 25.2653 20.1399V25.0033C25.2653 25.1823 25.3648 25.3515 25.5239 25.441L29.7409 27.8777C29.8182 27.9217 29.9056 27.9449 29.9945 27.9449C30.0835 27.9449 30.1709 27.9217 30.2482 27.8777L34.4651 25.441C34.6243 25.3515 34.7237 25.1824 34.7237 25.0033V12.8795C34.7237 12.6906 34.6243 12.5216 34.4651 12.432L31.9488 11.0296ZM31.561 23.4021C31.561 23.4519 31.5411 23.4916 31.5013 23.5115L30.0592 24.3469C30.039 24.3567 30.0169 24.3619 29.9945 24.3619C29.9721 24.3619 29.95 24.3567 29.9298 24.3469L28.4877 23.5115C28.4479 23.4916 28.428 23.4419 28.428 23.4021V21.7312C28.428 21.6815 28.4479 21.6417 28.4877 21.6218L29.9298 20.7864C29.95 20.7765 29.9721 20.7714 29.9945 20.7714C30.0169 20.7714 30.039 20.7765 30.0592 20.7864L31.5013 21.6218C31.5411 21.6416 31.561 21.6915 31.561 21.7312V23.4021ZM45.9823 21.6915C46.1415 21.602 46.231 21.4329 46.231 21.2538V20.0703C46.231 19.8913 46.1315 19.7222 45.9823 19.6327L41.7951 17.206C41.7179 17.162 41.6305 17.1389 41.5415 17.1389C41.4526 17.1389 41.3652 17.162 41.2879 17.206L37.0709 19.6426C36.9117 19.7321 36.8124 19.9012 36.8124 20.0803V24.9437C36.8124 25.1227 36.9117 25.2918 37.0709 25.3813L41.2581 27.7683C41.4173 27.8577 41.6062 27.8577 41.7554 27.7683L44.2915 26.3561C44.3711 26.3163 44.4208 26.2268 44.4208 26.1373C44.4208 26.0478 44.3711 25.9583 44.2915 25.9184L40.0546 23.4817C39.9751 23.4321 39.9254 23.3525 39.9254 23.263V21.7413C39.9254 21.6518 39.9751 21.5623 40.0546 21.5225L41.3774 20.7666C41.4161 20.7422 41.461 20.7293 41.5067 20.7293C41.5525 20.7293 41.5973 20.7422 41.636 20.7666L42.9588 21.5225C43.0384 21.5722 43.0881 21.6517 43.0881 21.7413V22.9348C43.0881 23.0243 43.1378 23.1138 43.2173 23.1535C43.2969 23.2033 43.3963 23.2033 43.4759 23.1535L45.9823 21.6915Z" fill="#181717"/>
<path d="M41.4769 21.4627C41.4917 21.453 41.509 21.4478 41.5266 21.4478C41.5443 21.4478 41.5616 21.453 41.5763 21.4627L42.382 21.9302C42.4118 21.95 42.4317 21.9798 42.4317 22.0197V22.9546C42.4317 22.9943 42.4118 23.0242 42.382 23.0441L41.5763 23.5115C41.5616 23.5212 41.5443 23.5264 41.5266 23.5264C41.509 23.5264 41.4917 23.5212 41.4769 23.5115L40.6713 23.0441C40.6414 23.0242 40.6216 22.9943 40.6216 22.9546V22.0197C40.6216 21.9798 40.6414 21.95 40.6713 21.9302L41.4769 21.4627V21.4627Z" fill="#539E43"/>
<mask id="mask0_199_334" style="mask-type:alpha" maskUnits="userSpaceOnUse" x="13" y="17" width="11" height="11">
<path d="M18.7309 17.2259C18.6536 17.1819 18.5662 17.1588 18.4773 17.1588C18.3883 17.1588 18.3009 17.1819 18.2237 17.2259L14.0365 19.6425C13.8773 19.732 13.7878 19.9011 13.7878 20.0801V24.9237C13.7878 25.1027 13.8873 25.2718 14.0365 25.3613L18.2237 27.7782C18.3009 27.8222 18.3883 27.8453 18.4773 27.8453C18.5662 27.8453 18.6536 27.8222 18.7309 27.7782L22.9181 25.3613C23.0772 25.2718 23.1668 25.1027 23.1668 24.9237V20.0802C23.1668 19.9012 23.0672 19.7321 22.9181 19.6426L18.7309 17.2259Z" fill="white"/>
</mask>
<g mask="url(#mask0_199_334)">
<path d="M18.7309 17.2259C18.6536 17.1819 18.5662 17.1588 18.4773 17.1588C18.3883 17.1588 18.3009 17.1819 18.2237 17.2259L14.0365 19.6425C13.8773 19.732 13.7878 19.9011 13.7878 20.0801V24.9237C13.7878 25.1027 13.8873 25.2718 14.0365 25.3613L18.2237 27.7782C18.3009 27.8222 18.3883 27.8453 18.4773 27.8453C18.5662 27.8453 18.6536 27.8222 18.7309 27.7782L22.9181 25.3613C23.0772 25.2718 23.1668 25.1027 23.1668 24.9237V20.0802C23.1668 19.9012 23.0672 19.7321 22.9181 19.6426L18.7309 17.2259Z" fill="url(#paint0_linear_199_334)"/>
<path d="M22.9282 19.6427L18.7212 17.2259C18.6798 17.205 18.6365 17.1884 18.5918 17.1762L13.8775 25.2522C13.9166 25.2999 13.9638 25.3403 14.0169 25.3715L18.2239 27.7884C18.3432 27.858 18.4825 27.8779 18.6117 27.838L23.0376 19.7422C23.0078 19.7025 22.9679 19.6725 22.9282 19.6427V19.6427Z" fill="url(#paint1_linear_199_334)"/>
<path fill-rule="evenodd" clip-rule="evenodd" d="M22.9379 25.3614C23.0572 25.2918 23.1467 25.1724 23.1866 25.0432L18.5716 17.1662C18.4522 17.1463 18.3229 17.1562 18.2136 17.2258L14.0364 19.6327L18.5417 27.8479C18.6072 27.8371 18.6709 27.8171 18.7307 27.7882L22.9378 25.3615L22.9379 25.3614Z" fill="url(#paint2_linear_199_334)"/>
<path fill-rule="evenodd" clip-rule="evenodd" d="M22.9379 25.3614L18.7408 27.7783C18.6815 27.8085 18.6177 27.8286 18.5518 27.8379L18.6314 27.9871L23.286 25.2919V25.2322L23.1666 25.0332C23.1467 25.1725 23.0572 25.2918 22.9379 25.3614V25.3614Z" fill="url(#paint3_linear_199_334)"/>
<path fill-rule="evenodd" clip-rule="evenodd" d="M22.9379 25.3614L18.7408 27.7783C18.6815 27.8085 18.6177 27.8286 18.5518 27.8379L18.6314 27.9871L23.286 25.2919V25.2322L23.1666 25.0332C23.1467 25.1725 23.0572 25.2918 22.9379 25.3614V25.3614Z" fill="url(#paint4_linear_199_334)"/>
</g>
<defs>
<linearGradient id="paint0_linear_199_334" x1="20.1831" y1="19.0275" x2="15.5936" y2="26.239" gradientUnits="userSpaceOnUse">
<stop stop-color="#41873F"/>
<stop offset="0.3288" stop-color="#418B3D"/>
<stop offset="0.6352" stop-color="#419637"/>
<stop offset="0.9319" stop-color="#3FA92D"/>
<stop offset="1" stop-color="#3FAE2A"/>
</linearGradient>
<linearGradient id="paint1_linear_199_334" x1="17.8418" y1="23.0694" x2="29.3359" y2="16.8246" gradientUnits="userSpaceOnUse">
<stop offset="0.1376" stop-color="#41873F"/>
<stop offset="0.4032" stop-color="#54A044"/>
<stop offset="0.7136" stop-color="#66B848"/>
<stop offset="0.9081" stop-color="#6CC04A"/>
</linearGradient>
<linearGradient id="paint2_linear_199_334" x1="13.6348" y1="22.5022" x2="23.3237" y2="22.5022" gradientUnits="userSpaceOnUse">
<stop offset="0.09192" stop-color="#6CC04A"/>
<stop offset="0.2864" stop-color="#66B848"/>
<stop offset="0.5968" stop-color="#54A044"/>
<stop offset="0.8624" stop-color="#41873F"/>
</linearGradient>
<linearGradient id="paint3_linear_199_334" x1="13.6348" y1="26.5183" x2="23.3237" y2="26.5183" gradientUnits="userSpaceOnUse">
<stop offset="0.09192" stop-color="#6CC04A"/>
<stop offset="0.2864" stop-color="#66B848"/>
<stop offset="0.5968" stop-color="#54A044"/>
<stop offset="0.8624" stop-color="#41873F"/>
</linearGradient>
<linearGradient id="paint4_linear_199_334" x1="24.7352" y1="18.7985" x2="22.2807" y2="31.6604" gradientUnits="userSpaceOnUse">
<stop stop-color="#41873F"/>
<stop offset="0.3288" stop-color="#418B3D"/>
<stop offset="0.6352" stop-color="#419637"/>
<stop offset="0.9319" stop-color="#3FA92D"/>
<stop offset="1" stop-color="#3FAE2A"/>
</linearGradient>
</defs>
</svg>
