<svg width="48" height="48" viewBox="0 0 48 48" fill="none" xmlns="http://www.w3.org/2000/svg">
<path fill-rule="evenodd" clip-rule="evenodd" d="M36.9687 17.8441C36.5403 17.7005 36.1083 17.5675 35.673 17.4451C35.7452 17.1584 35.8119 16.8705 35.8732 16.5814C36.854 11.9281 36.2127 8.17947 34.0228 6.94542C31.9231 5.76192 28.4891 6.99596 25.0209 9.94565C24.6791 10.237 24.345 10.5367 24.0187 10.8446C23.8002 10.6398 23.5779 10.4391 23.3518 10.2425C19.717 7.08818 16.0737 5.75914 13.886 6.99681C11.7883 8.18363 11.167 11.7079 12.05 16.1177C12.1379 16.5545 12.2371 16.989 12.3475 17.4207C11.832 17.5638 11.3341 17.7163 10.8578 17.8786C6.5965 19.3306 3.875 21.6064 3.875 23.9667C3.875 26.4048 6.79636 28.8502 11.2351 30.3328C11.595 30.4525 11.9579 30.5633 12.3235 30.6653C12.2047 31.1305 12.0992 31.5988 12.0073 32.0698C11.1654 36.403 11.8229 39.8438 13.9151 41.0232C16.076 42.2411 19.7027 40.9893 23.2344 37.9722C23.5135 37.7337 23.7937 37.4808 24.0743 37.2156C24.4277 37.5488 24.7905 37.8724 25.1623 38.1858C28.5832 41.0628 31.9616 42.2246 34.052 41.0419C36.211 39.8204 36.9124 36.1242 36.0015 31.6271C35.932 31.2836 35.8509 30.9328 35.7601 30.5755C36.0148 30.502 36.2648 30.4261 36.5086 30.3471C41.123 28.853 44.125 26.4374 44.125 23.9667C44.125 21.5978 41.3159 19.3067 36.9687 17.8441ZM35.9678 28.7521C35.7478 28.8232 35.5219 28.892 35.2918 28.9587C34.7823 27.3826 34.0947 25.7065 33.2536 23.9751C34.0564 22.2847 34.7173 20.6302 35.2125 19.0642C35.6242 19.1809 36.0239 19.3036 36.409 19.4333C40.1338 20.6863 42.4057 22.5392 42.4057 23.9668C42.4057 25.4875 39.9519 27.4618 35.9678 28.7521ZM34.3147 31.9535C34.7175 33.9421 34.775 35.74 34.5082 37.1455C34.2684 38.4084 33.7864 39.2503 33.1904 39.5875C31.9219 40.3051 29.2091 39.3723 26.2838 36.912C25.9484 36.6299 25.6105 36.3287 25.2717 36.0101C26.4058 34.7978 27.5393 33.3882 28.6455 31.8231C30.5914 31.6544 32.4297 31.3784 34.0969 31.0019C34.1788 31.3257 34.2519 31.6431 34.3147 31.9535ZM17.597 39.4636C16.3578 39.8913 15.3707 39.9035 14.7742 39.5673C13.5045 38.8518 12.9768 36.0888 13.6967 32.3832C13.7823 31.9452 13.8803 31.5097 13.9906 31.0771C15.6392 31.4334 17.4642 31.6899 19.4147 31.8445C20.5282 33.376 21.6944 34.7838 22.8698 36.0166C22.62 36.2527 22.3643 36.4828 22.1029 36.7067C20.5412 38.041 18.9763 38.9874 17.597 39.4636ZM11.7912 28.7427C9.82852 28.087 8.2077 27.235 7.0967 26.3053C6.09844 25.4696 5.59433 24.64 5.59433 23.9668C5.59433 22.5345 7.77948 20.7074 11.4239 19.4655C11.8813 19.3104 12.3433 19.1682 12.8092 19.0395C13.313 20.6406 13.9737 22.3148 14.771 24.0077C13.9633 25.7259 13.2932 27.4267 12.7848 29.0466C12.4511 28.9532 12.1198 28.8519 11.7912 28.7427ZM13.7375 15.795C12.9809 12.0166 13.4833 9.16643 14.7475 8.45125C16.0941 7.68938 19.0716 8.77573 22.2099 11.4992C22.4105 11.6733 22.612 11.8555 22.8138 12.044C21.6446 13.2713 20.489 14.6684 19.3851 16.1911C17.4921 16.3626 15.68 16.638 14.0141 17.0069C13.9115 16.6052 13.8192 16.2011 13.7375 15.795ZM31.0995 19.985C30.706 19.3207 30.2979 18.6648 29.8755 18.0177C31.1598 18.1762 32.3902 18.3868 33.5456 18.6446C33.1987 19.7311 32.7664 20.8673 32.2573 22.032C31.8853 21.3422 31.4993 20.6598 31.0995 19.985ZM24.0192 13.245C24.8123 14.0847 25.6066 15.0224 26.3879 16.0396C24.803 15.9664 23.2155 15.9661 21.6307 16.0386C22.4127 15.0307 23.2137 14.0944 24.0192 13.245ZM16.8936 19.9965C16.4987 20.6659 16.1199 21.3442 15.7575 22.0309C15.2567 20.8701 14.8283 19.7289 14.4785 18.6269C15.6269 18.3756 16.8516 18.1704 18.1275 18.0146C17.7004 18.6657 17.289 19.3265 16.8936 19.9965ZM18.1642 30.039C16.846 29.8951 15.6029 29.7004 14.4548 29.4561C14.8102 28.3345 15.248 27.1688 15.7594 25.9832C16.1234 26.6703 16.5039 27.349 16.9005 28.0188C17.3053 28.7018 17.7266 29.3755 18.1642 30.039ZM24.0668 34.8073C23.2519 33.9478 22.439 32.9972 21.6451 31.9748C22.4157 32.0043 23.2014 32.0193 24 32.0193C24.8205 32.0193 25.6315 32.0014 26.4297 31.9666C25.6459 33.0076 24.8545 33.9596 24.0668 34.8073ZM32.2737 25.9228C32.8117 27.1212 33.2652 28.2807 33.6254 29.3833C32.4583 29.6436 31.1983 29.8532 29.8707 30.0089C30.2961 29.3496 30.7081 28.6822 31.1064 28.0071C31.5113 27.3209 31.9005 26.6259 32.2737 25.9228ZM29.6169 27.1676C29.0071 28.2027 28.3632 29.2183 27.6859 30.2125C26.4917 30.2959 25.2576 30.3389 24 30.3389C22.7475 30.3389 21.5291 30.3008 20.3558 30.2265C19.661 29.2345 19.0048 28.2172 18.3887 27.1768C17.7754 26.1419 17.2026 25.0846 16.6715 24.0072C17.2013 22.9295 17.7723 21.8716 18.3835 20.8362C18.9945 19.8002 19.6455 18.7872 20.3351 17.7996C21.5322 17.7112 22.7595 17.6648 24.0002 17.6648C25.2464 17.6648 26.4753 17.7115 27.672 17.8006C28.3547 18.7868 29.0015 19.7962 29.6113 20.8269C30.2246 21.8604 30.8033 22.9131 31.3465 23.9833C30.8089 25.0645 30.232 26.1266 29.6169 27.1676ZM33.164 8.40124C34.5118 9.16103 35.036 12.2246 34.1891 16.2423C34.1336 16.504 34.0733 16.7647 34.0082 17.0243C32.3384 16.6477 30.525 16.3675 28.6264 16.1934C27.5204 14.6541 26.3745 13.2546 25.2241 12.0432C25.5256 11.7591 25.8342 11.4825 26.1497 11.2135C29.1213 8.68591 31.8986 7.68799 33.164 8.40124ZM27.5941 23.9668C27.5941 22.0269 25.9851 20.4541 24 20.4541C22.015 20.4541 20.4058 22.0269 20.4058 23.9668C20.4058 25.907 22.015 27.4798 24 27.4798C25.9851 27.4798 27.5941 25.907 27.5941 23.9668Z" fill="#44A6B9"/>
</svg>
