<svg width="48" height="48" viewBox="0 0 48 48" fill="none" xmlns="http://www.w3.org/2000/svg">
<path d="M7.41847 29.0877C5.49242 18.6629 10.5826 8.60885 22.2656 7.27135C20.6545 5.51883 18.4536 5.50566 17.4409 5.71884C15.653 6.29894 15.7091 7.47682 13.681 8.99828C11.6647 10.1706 10.6521 9.27283 9.18334 10.4882C7.71773 11.6945 8.7404 14.4636 8.12572 15.002C7.51555 16.0787 5.62281 17.0379 5.27827 18.3978C4.99352 20.137 6.05115 21.3794 6.01047 22.8702C6.1325 24.1125 4.79559 24.815 4.98767 25.8219C5.56301 27.4668 6.67197 28.4569 7.19476 28.9132C7.31465 28.9993 7.44127 29.2111 7.41847 29.0877Z" fill="#FF0090"/>
<path d="M28.4562 14.7552C28.0277 14.7552 27.6802 14.401 27.6802 13.9642C27.6802 13.5273 28.0277 13.1731 28.4562 13.1731C28.8848 13.1731 29.2323 13.5273 29.2323 13.9642C29.2323 14.401 28.8848 14.7552 28.4562 14.7552ZM8.03625 30.4073C6.17782 21.298 11.9286 13.6866 23.065 17.4338C29.5996 21.3308 37.8198 21.077 38.1905 18.558C39.1054 15.5381 34.0245 9.31493 26.4278 7.69115C11.3568 4.69342 3.2319 21.298 8.03625 30.4073Z" fill="url(#paint0_radial)"/>
<path d="M32.7945 31.2226C35.0431 31.4672 37.1777 30.9253 39.1557 29.3062C36.1673 32.6534 32.4307 34.3363 28.1433 34.7943C30.1904 36.5419 32.1645 37.3291 34.0531 36.9922C28.8054 38.4462 24.4087 36.8457 19.0604 31.4974C18.7804 32.9371 20.2947 35.1803 21.8555 36.6123C12.7993 32.6697 12.0053 20.388 23.0485 17.3669C11.6009 11.844 5.12793 22.5751 8.3082 31.3702C11.4199 38.1443 19.7119 43.3591 28.7999 42.2123C33.2143 41.6693 39.8063 38.6132 42.4992 31.3702C40.6013 33.0805 37.2086 34.5701 35.6947 34.6843C40.8187 32.1129 43.5847 27.7435 42.8083 21.7715C41.7469 24.3089 40.3465 26.2576 38.5949 27.596C42.3158 21.7715 41.6773 18.761 38.9232 15.4524C40.8931 20.8923 38.3448 26.9298 32.7945 31.2226Z" fill="url(#paint1_radial)"/>
<path d="M29.8592 37.7208C29.4763 37.6474 30.7272 38.2409 28.3089 37.5838C25.8906 36.9267 23.4283 36.2935 18.9237 31.6891C18.6479 33.1384 20.1391 35.3964 21.6762 36.8377C25.8256 39.8079 23.0037 38.4187 29.326 40.662C29.8334 39.6255 29.8592 38.7045 29.8592 37.7208Z" fill="url(#paint2_linear)"/>
<path d="M22.0842 14.2725C22.0842 14.2725 22.6409 13.4702 22.8577 13.1084C23.1232 12.665 23.5311 11.8568 23.5311 11.8568C23.5311 11.8568 19.2455 10.4917 18.1937 10.3251C14.9243 11.1537 14.9124 12.491 16.7403 14.5378C16.9437 14.7656 22.0842 14.2725 22.0842 14.2725Z" fill="url(#paint3_linear)"/>
<defs>
<radialGradient id="paint0_radial" cx="0" cy="0" r="1" gradientUnits="userSpaceOnUse" gradientTransform="translate(24.2323 16.0668) scale(28.4362 28.8006)">
<stop stop-color="#F80090"/>
<stop offset="1" stop-color="#4D008E"/>
</radialGradient>
<radialGradient id="paint1_radial" cx="0" cy="0" r="1" gradientUnits="userSpaceOnUse" gradientTransform="translate(25.2188 16.6364) scale(28.9625 29.3336)">
<stop stop-color="#57008E"/>
<stop offset="0.291746" stop-color="#5C008E"/>
<stop offset="1" stop-color="#F80090"/>
</radialGradient>
<linearGradient id="paint2_linear" x1="20.891" y1="31.5681" x2="26.1054" y2="40.3425" gradientUnits="userSpaceOnUse">
<stop stop-color="#F70090"/>
<stop offset="0.669713" stop-color="#E50090"/>
<stop offset="0.827148" stop-color="#D6008F" stop-opacity="0.2"/>
<stop offset="1" stop-color="#C10090" stop-opacity="0"/>
</linearGradient>
<linearGradient id="paint3_linear" x1="20.7181" y1="13.3175" x2="19.9749" y2="11.9627" gradientUnits="userSpaceOnUse">
<stop stop-color="#B2008F" stop-opacity="0.15134"/>
<stop offset="0.400351" stop-color="#F70090" stop-opacity="0.4"/>
<stop offset="0.648996" stop-color="#F60090" stop-opacity="0.891668"/>
<stop offset="1" stop-color="#FF0090"/>
</linearGradient>
</defs>
</svg>
