<svg width="48" height="48" viewBox="0 0 48 48" fill="none" xmlns="http://www.w3.org/2000/svg">
<path d="M25.073 15.7603V13.3176V10.875H4.96875V15.7603H12.1025V38.0625H17.9393V15.7603H25.073Z" fill="#295FBE"/>
<path d="M41.351 11.7034C41.0051 11.5759 40.0107 11.3423 39.1244 11.1724C34.9739 10.429 30.8882 11.1086 28.4238 12.9565C25.527 15.1018 24.8785 19.8171 27.0402 22.897C28.013 24.2988 29.0507 25.021 32.3365 26.614C36.0547 28.3982 36.9627 29.2053 36.9627 30.7559C36.9627 31.563 36.8546 31.8391 36.3141 32.3276C35.4494 33.1348 34.0443 33.4746 32.142 33.3472C30.2396 33.2197 28.4238 32.6038 27.0186 31.6055L25.9377 30.8408V36.7456L27.2996 37.1916C31.1043 38.4236 35.9683 38.2961 38.9515 36.9155C40.3566 36.2571 41.7834 34.834 42.4319 33.4321C43.1237 31.9453 43.1021 28.6318 42.3887 27.0601C41.5888 25.2971 39.8378 23.874 36.379 22.196C34.7361 21.3889 33.0499 20.4119 32.5959 19.9871C31.8826 19.3286 31.7745 19.095 31.7745 18.2454C31.7745 17.4595 31.8826 17.1621 32.4014 16.6736C32.7473 16.3337 33.4174 15.9302 33.8714 15.8027C35.7737 15.2505 38.8866 15.6541 40.8322 16.7373C41.351 17.0134 41.805 17.2471 41.8482 17.2471C41.8915 17.2471 41.9347 16.0576 41.9347 14.592V11.937L41.351 11.7034Z" fill="#295FBE"/>
</svg>
